<svg width="40" height="40" viewBox="0 0 40 40" fill="none" xmlns="http://www.w3.org/2000/svg">
<g clip-path="url(#clip0_1659_12065)">
<g filter="url(#filter0_i_1659_12065)">
<path d="M20.808 40.0212C27.0316 40.0212 32.0767 38.2897 32.0767 36.1536C32.0767 34.0177 27.0316 32.2861 20.808 32.2861C14.5844 32.2861 9.53926 34.0177 9.53926 36.1536C9.53926 38.2897 14.5844 40.0212 20.808 40.0212Z" fill="#96FF43"/>
</g>
<path d="M14.1994 31.9654C14.8586 30.6618 17.6166 29.6837 20.9202 29.6837C24.2663 29.6837 27.0524 30.6872 27.665 32.016C27.7473 32.1942 27.7916 32.3781 27.7916 32.5664C27.7916 32.6046 27.7882 32.6423 27.7847 32.6802C27.7563 32.3969 27.6152 32.1247 27.3757 31.8709C26.4132 30.8502 23.8862 30.1218 20.9202 30.1218C18.0165 30.1218 15.5352 30.8204 14.5291 31.8072C14.2517 32.0792 14.0864 32.3729 14.0556 32.6802C14.052 32.6423 14.0487 32.6046 14.0487 32.5664C14.0487 32.3602 14.1013 32.1593 14.1994 31.9654Z" fill="#DB7819"/>
<path d="M14.0556 32.68C14.1983 34.2192 17.2162 35.4489 20.9202 35.4489C24.6242 35.4489 27.6421 34.2192 27.7848 32.68C27.7883 32.6422 27.7917 32.6045 27.7917 32.5662C27.7917 32.3779 27.7473 32.1941 27.665 32.0158C27.0525 30.6871 24.2664 29.6835 20.9202 29.6835C17.6167 29.6835 14.8586 30.6617 14.1994 31.9652C14.1013 32.1592 14.0487 32.3601 14.0487 32.5662C14.0487 32.6045 14.052 32.6422 14.0556 32.68ZM20.8835 28.7898C25.7196 28.7898 29.6399 30.4766 29.6399 32.5575C29.6399 34.6383 25.7196 36.3252 20.8835 36.3252C16.0476 36.3252 12.1273 34.6383 12.1273 32.5575C12.1273 30.4766 16.0476 28.7898 20.8835 28.7898Z" fill="#FBD218"/>
<path d="M14.529 31.8072C15.5352 30.8203 18.0164 30.1217 20.9201 30.1217C23.8861 30.1217 26.4131 30.8501 27.3756 31.8708C27.6151 32.1246 27.7562 32.3968 27.7847 32.6801C27.642 34.2193 24.6241 35.449 20.9201 35.449C17.2161 35.449 14.1982 34.2193 14.0555 32.6801C14.0863 32.3728 14.2517 32.0791 14.529 31.8072Z" fill="#EFA117"/>
<path d="M20.109 30.7597H19.026L18.7055 30.4934H22.548L23.0071 30.7597H22.1097C20.9314 30.7597 20.7236 31.0726 20.7236 31.0726H22.6867L23.1889 31.3832H20.5974C20.5822 32.0607 22.5064 32.0328 22.5064 32.0328H23.1199L23.2243 32.4307L20.2971 34.821H18.9346L18.9557 34.6874L22.048 32.3219C19.7479 32.3219 19.6908 31.3832 19.6908 31.3832H18.8828L18.5426 31.0726H19.7686C19.8193 30.8641 20.109 30.7597 20.109 30.7597Z" fill="#FBD218"/>
<path d="M23.0307 31.3834H23.1889V31.4812H20.6109C20.6021 31.4502 20.5967 31.418 20.5974 31.3834H23.0307Z" fill="#DB7819"/>
<path d="M22.1096 30.7598H23.007V30.8578H22.1096C21.37 30.8578 21.013 30.981 20.8495 31.0728H20.7235C20.7235 31.0728 20.9313 30.7598 22.1096 30.7598Z" fill="#DB7819"/>
<path d="M20.1089 30.7597C20.1089 30.7597 20.0184 30.7925 19.9296 30.8577H19.026L18.7054 30.5914V30.4935L19.026 30.7597H20.1089Z" fill="#DB7819"/>
<path d="M18.6498 31.1705L18.8828 31.3832H19.6908C19.6908 31.3832 19.7479 32.3219 22.048 32.3219L21.9223 32.4182C19.7473 32.3843 19.6908 31.4811 19.6908 31.4811H18.8828L18.5426 31.1705V31.0726L18.6498 31.1705Z" fill="#DB7819"/>
<path d="M20.2971 34.8211L23.2032 32.4481L23.2243 32.4308V32.5287L20.2971 34.9189H18.9346V34.8211H18.95H20.2971Z" fill="#DB7819"/>
<path d="M29.6399 32.5575V34.3976C29.6399 35.3042 28.678 36.0456 27.1206 36.7258V35.2011C28.678 34.521 29.6399 33.5877 29.6399 32.5575Z" fill="#8D5019"/>
<path d="M24.546 35.9795V37.5042C23.532 37.7054 22.4142 37.8257 21.2358 37.8459V36.3213C22.4142 36.3012 23.532 36.1809 24.546 35.9795Z" fill="#EFB617"/>
<path d="M27.1206 35.201V36.7257C26.3833 37.0476 25.5121 37.3123 24.5462 37.5042V35.9794C25.5121 35.7878 26.3833 35.5231 27.1206 35.201Z" fill="#D77619"/>
<path d="M20.5311 36.3213V37.8459C19.3527 37.8257 18.2349 37.7054 17.221 37.5042V35.9795C18.2349 36.1809 19.3527 36.3012 20.5311 36.3213Z" fill="#EFB617"/>
<path d="M14.6463 35.2011V36.7258C13.089 36.0456 12.127 35.3042 12.127 34.3976V32.5575C12.127 33.5877 13.089 34.521 14.6463 35.2011Z" fill="#8D5019"/>
<path d="M20.8833 36.3253C21.0016 36.3253 21.1188 36.3234 21.2358 36.3215V37.8461C21.1188 37.8481 21.0016 37.8499 20.8833 37.8499C20.7652 37.8499 20.648 37.8481 20.5309 37.8461V36.3215C20.648 36.3234 20.7652 36.3253 20.8833 36.3253Z" fill="#D77619"/>
<path d="M17.2209 35.9794V37.5042C16.255 37.3123 15.3837 37.0476 14.6464 36.7257V35.201C15.3837 35.5231 16.255 35.7878 17.2209 35.9794Z" fill="#D77619"/>
<path d="M13.6956 30.0838C14.3548 28.7803 17.1129 27.8022 20.4164 27.8022C23.7625 27.8022 26.5486 28.8057 27.1613 30.1345C27.2435 30.3127 27.2878 30.4966 27.2878 30.6849C27.2878 30.7231 27.2845 30.7609 27.281 30.7988C27.2525 30.5154 27.1114 30.2432 26.872 29.9893C25.9094 28.9687 23.3825 28.2403 20.4164 28.2403C17.5127 28.2403 15.0315 28.9389 14.0253 29.9258C13.748 30.1977 13.5826 30.4915 13.5518 30.7988C13.5483 30.7609 13.5449 30.7231 13.5449 30.6849C13.5449 30.4788 13.5975 30.2777 13.6956 30.0838Z" fill="#DB7819"/>
<path d="M13.552 30.7989C13.6946 32.338 16.7126 33.5676 20.4166 33.5676C24.1205 33.5676 27.1385 32.338 27.2811 30.7989C27.2846 30.7609 27.288 30.7231 27.288 30.685C27.288 30.4967 27.2437 30.3128 27.1615 30.1346C26.5488 28.8058 23.7627 27.8023 20.4166 27.8023C17.1131 27.8023 14.355 28.7804 13.6958 30.0839C13.5977 30.2778 13.5451 30.4788 13.5451 30.685C13.5451 30.7231 13.5485 30.7609 13.552 30.7989ZM20.38 26.9085C25.216 26.9085 29.1364 28.5953 29.1364 30.6762C29.1364 32.7571 25.216 34.4438 20.38 34.4438C15.544 34.4438 11.6236 32.7571 11.6236 30.6762C11.6236 28.5953 15.544 26.9085 20.38 26.9085Z" fill="#FBD218"/>
<path d="M14.0255 29.9258C15.0316 28.939 17.5128 28.2404 20.4165 28.2404C23.3827 28.2404 25.9096 28.9688 26.8722 29.9894C27.1116 30.2433 27.2527 30.5155 27.2811 30.7989C27.1385 32.338 24.1205 33.5676 20.4165 33.5676C16.7126 33.5676 13.6946 32.338 13.552 30.7989C13.5828 30.4916 13.7481 30.1978 14.0255 29.9258Z" fill="#EFA117"/>
<path d="M19.6054 28.8784H18.5224L18.2019 28.6122H22.0443L22.5035 28.8784H21.606C20.4277 28.8784 20.2199 29.1914 20.2199 29.1914H22.1831L22.6852 29.502H20.0937C20.0787 30.1795 22.0028 30.1514 22.0028 30.1514H22.6162L22.7208 30.5495L19.7935 32.9397H18.431L18.4521 32.8061L21.5444 30.4406C19.2442 30.4406 19.1871 29.502 19.1871 29.502H18.3792L18.0389 29.1914H19.2651C19.3157 28.9828 19.6054 28.8784 19.6054 28.8784Z" fill="#FBD218"/>
<path d="M22.5269 29.502H22.6852V29.5999H20.1071C20.0983 29.5689 20.0929 29.5366 20.0937 29.502H22.5269Z" fill="#DB7819"/>
<path d="M21.606 28.8784H22.5035V28.9763H21.606C20.8665 28.9763 20.5094 29.0995 20.346 29.1914H20.2199C20.2199 29.1914 20.4277 28.8784 21.606 28.8784Z" fill="#DB7819"/>
<path d="M19.6053 28.8784C19.6053 28.8784 19.5148 28.9111 19.4261 28.9763H18.5224L18.2019 28.71V28.6122L18.5224 28.8784H19.6053Z" fill="#DB7819"/>
<path d="M18.1461 29.2892L18.3791 29.5019H19.187C19.187 29.5019 19.2442 30.4406 21.5443 30.4406L21.4186 30.5369C19.2436 30.5028 19.187 29.5997 19.187 29.5997H18.3791L18.0389 29.2892V29.1913L18.1461 29.2892Z" fill="#DB7819"/>
<path d="M19.7935 32.9397L22.6995 30.5667L22.7208 30.5495V30.6473L19.7935 33.0376H18.431V32.9397H18.4464H19.7935Z" fill="#DB7819"/>
<path d="M29.1364 30.676V32.516C29.1364 33.4228 28.1743 34.164 26.617 34.8442V33.3197C28.1743 32.6395 29.1364 31.7062 29.1364 30.676Z" fill="#8D5019"/>
<path d="M24.0424 34.0983V35.6229C23.0285 35.8241 21.9107 35.9444 20.7324 35.9646V34.44C21.9107 34.4199 23.0285 34.2994 24.0424 34.0983Z" fill="#EFB617"/>
<path d="M26.6169 33.3199V34.8444C25.8796 35.1666 25.0084 35.4312 24.0424 35.623V34.0984C25.0084 33.9066 25.8796 33.6418 26.6169 33.3199Z" fill="#D77619"/>
<path d="M20.0273 34.44V35.9646C18.8489 35.9444 17.7311 35.8241 16.7173 35.6229V34.0983C17.7311 34.2994 18.8489 34.4199 20.0273 34.44Z" fill="#EFB617"/>
<path d="M14.1428 33.3197V34.8442C12.5854 34.164 11.6235 33.4228 11.6235 32.516V30.676C11.6235 31.7062 12.5854 32.6395 14.1428 33.3197Z" fill="#8D5019"/>
<path d="M20.3798 34.4439C20.498 34.4439 20.6151 34.4422 20.7323 34.4401V35.9647C20.6151 35.9667 20.498 35.9685 20.3798 35.9685C20.2616 35.9685 20.1444 35.9667 20.0273 35.9647V34.4401C20.1444 34.4422 20.2616 34.4439 20.3798 34.4439Z" fill="#D77619"/>
<path d="M16.7174 34.0982V35.6228C15.7514 35.4309 14.8801 35.1663 14.1428 34.8442V33.3197C14.8801 33.6416 15.7514 33.9064 16.7174 34.0982Z" fill="#D77619"/>
<path d="M14.1994 27.9545C14.8586 26.6512 17.6166 25.6729 20.9202 25.6729C24.2663 25.6729 27.0524 26.6766 27.665 28.0052C27.7473 28.1835 27.7916 28.3674 27.7916 28.5556C27.7916 28.5938 27.7882 28.6317 27.7847 28.6694C27.7563 28.3861 27.6152 28.1141 27.3757 27.86C26.4132 26.8396 23.8862 26.1111 20.9202 26.1111C18.0165 26.1111 15.5352 26.8095 14.5291 27.7965C14.2517 28.0684 14.0864 28.3622 14.0556 28.6694C14.052 28.6317 14.0487 28.5938 14.0487 28.5556C14.0487 28.3495 14.1013 28.1484 14.1994 27.9545Z" fill="#DB7819"/>
<path d="M14.0556 28.6697C14.1983 30.209 17.2162 31.4386 20.9202 31.4386C24.6242 31.4386 27.6421 30.209 27.7848 28.6697C27.7883 28.6319 27.7917 28.594 27.7917 28.5558C27.7917 28.3676 27.7473 28.1837 27.665 28.0054C27.0525 26.6768 24.2664 25.6732 20.9202 25.6732C17.6167 25.6732 14.8586 26.6514 14.1994 27.9547C14.1013 28.1487 14.0487 28.3497 14.0487 28.5558C14.0487 28.594 14.052 28.6319 14.0556 28.6697ZM20.8835 24.7795C25.7196 24.7795 29.6399 26.4663 29.6399 28.5471C29.6399 30.6279 25.7196 32.3147 20.8835 32.3147C16.0476 32.3147 12.1273 30.6279 12.1273 28.5471C12.1273 26.4663 16.0476 24.7795 20.8835 24.7795Z" fill="#FBD218"/>
<path d="M14.529 27.7966C15.5352 26.8096 18.0164 26.1112 20.9201 26.1112C23.8861 26.1112 26.4131 26.8396 27.3756 27.8601C27.6151 28.1141 27.7562 28.3862 27.7847 28.6695C27.642 30.2088 24.6241 31.4385 20.9201 31.4385C17.2161 31.4385 14.1982 30.2088 14.0555 28.6695C14.0863 28.3623 14.2517 28.0685 14.529 27.7966Z" fill="#EFA117"/>
<path d="M20.109 26.7492H19.026L18.7055 26.4829H22.548L23.0071 26.7492H22.1097C20.9314 26.7492 20.7236 27.0621 20.7236 27.0621H22.6867L23.1889 27.3727H20.5974C20.5822 28.0502 22.5064 28.0221 22.5064 28.0221H23.1199L23.2243 28.4202L20.2971 30.8105H18.9346L18.9557 30.6768L22.048 28.3115C19.7479 28.3115 19.6908 27.3727 19.6908 27.3727H18.8828L18.5426 27.0621H19.7686C19.8193 26.8536 20.109 26.7492 20.109 26.7492Z" fill="#FBD218"/>
<path d="M23.0307 27.3728H23.1889V27.4707H20.6109C20.6021 27.4397 20.5967 27.4074 20.5974 27.3728H23.0307Z" fill="#DB7819"/>
<path d="M22.1096 26.7492H23.007V26.847H22.1096C21.37 26.847 21.013 26.9702 20.8495 27.062H20.7235C20.7235 27.062 20.9313 26.7492 22.1096 26.7492Z" fill="#DB7819"/>
<path d="M20.1089 26.7493C20.1089 26.7493 20.0184 26.782 19.9296 26.8472H19.026L18.7054 26.5809V26.483L19.026 26.7493H20.1089Z" fill="#DB7819"/>
<path d="M18.6498 27.1602L18.8828 27.3729H19.6908C19.6908 27.3729 19.7479 28.3116 22.048 28.3116L21.9223 28.408C19.7473 28.3739 19.6908 27.4708 19.6908 27.4708H18.8828L18.5426 27.1602V27.0622L18.6498 27.1602Z" fill="#DB7819"/>
<path d="M20.2971 30.8106L23.2032 28.4376L23.2243 28.4203V28.5182L20.2971 30.9084H18.9346V30.8106H18.95H20.2971Z" fill="#DB7819"/>
<path d="M29.6399 28.5469V30.3869C29.6399 31.2937 28.678 32.035 27.1206 32.7151V31.1906C28.678 30.5104 29.6399 29.5771 29.6399 28.5469Z" fill="#8D5019"/>
<path d="M24.546 31.9693V33.4938C23.532 33.6951 22.4142 33.8155 21.2358 33.8354V32.3109C22.4142 32.2908 23.532 32.1705 24.546 31.9693Z" fill="#EFB617"/>
<path d="M27.1206 31.1907V32.7152C26.3833 33.0373 25.5121 33.302 24.5462 33.4937V31.9691C25.5121 31.7774 26.3833 31.5127 27.1206 31.1907Z" fill="#D77619"/>
<path d="M20.5311 32.3109V33.8354C19.3527 33.8155 18.2349 33.6951 17.221 33.4938V31.9693C18.2349 32.1705 19.3527 32.2908 20.5311 32.3109Z" fill="#EFB617"/>
<path d="M14.6463 31.1906V32.7151C13.089 32.035 12.127 31.2937 12.127 30.3869V28.5469C12.127 29.5771 13.089 30.5104 14.6463 31.1906Z" fill="#8D5019"/>
<path d="M20.8833 32.3146C21.0016 32.3146 21.1188 32.3129 21.2358 32.3108V33.8354C21.1188 33.8374 21.0016 33.8394 20.8833 33.8394C20.7652 33.8394 20.648 33.8374 20.5309 33.8354V32.3108C20.648 32.3129 20.7652 32.3146 20.8833 32.3146Z" fill="#D77619"/>
<path d="M17.2209 31.9691V33.4937C16.255 33.302 15.3837 33.0373 14.6464 32.7152V31.1907C15.3837 31.5127 16.255 31.7774 17.2209 31.9691Z" fill="#D77619"/>
<path d="M15.5229 26.2214C16.1822 24.9179 18.9401 23.9398 22.2438 23.9398C25.5898 23.9398 28.376 24.9434 28.9886 26.2721C29.0708 26.4503 29.1152 26.6342 29.1152 26.8225C29.1152 26.8606 29.1118 26.8986 29.1083 26.9363C29.0799 26.653 28.9388 26.3808 28.6993 26.1269C27.7368 25.1064 25.2098 24.3779 22.2438 24.3779C19.3399 24.3779 16.8587 25.0764 15.8526 26.0633C15.5754 26.3353 15.4099 26.6291 15.3791 26.9363C15.3756 26.8986 15.3722 26.8606 15.3722 26.8225C15.3722 26.6162 15.4249 26.4153 15.5229 26.2214Z" fill="#DB7819"/>
<path d="M15.3791 26.9363C15.5217 28.4756 18.5397 29.7052 22.2438 29.7052C25.9477 29.7052 28.9656 28.4756 29.1083 26.9363C29.1118 26.8985 29.1152 26.8606 29.1152 26.8224C29.1152 26.6341 29.0708 26.4503 28.9886 26.272C28.376 24.9434 25.5898 23.9398 22.2438 23.9398C18.9401 23.9398 16.1822 24.9179 15.5229 26.2213C15.4249 26.4153 15.3722 26.6162 15.3722 26.8224C15.3722 26.8606 15.3756 26.8985 15.3791 26.9363ZM22.2071 23.046C27.0431 23.046 30.9634 24.7329 30.9634 26.8137C30.9634 28.8945 27.0431 30.5813 22.2071 30.5813C17.3711 30.5813 13.4508 28.8945 13.4508 26.8137C13.4508 24.7329 17.3711 23.046 22.2071 23.046Z" fill="#FBD218"/>
<path d="M15.8524 26.0632C16.8586 25.0762 19.3398 24.3777 22.2436 24.3777C25.2096 24.3777 27.7367 25.1062 28.6992 26.1267C28.9387 26.3806 29.0798 26.6528 29.1082 26.9361C28.9654 28.4754 25.9476 29.7051 22.2436 29.7051C18.5395 29.7051 15.5216 28.4754 15.3789 26.9361C15.4097 26.6289 15.5752 26.3351 15.8524 26.0632Z" fill="#EFA117"/>
<path d="M21.4325 25.016H20.3495L20.0291 24.7496H23.8714L24.3306 25.016H23.4331C22.2549 25.016 22.047 25.3288 22.047 25.3288H24.0103L24.5124 25.6393H21.9208C21.9058 26.3169 23.8299 26.2888 23.8299 26.2888H24.4434L24.5479 26.6869L21.6206 29.0771H20.2581L20.2792 28.9435L23.3716 26.5782C21.0713 26.5782 21.0142 25.6393 21.0142 25.6393H20.2064L19.8662 25.3288H21.0922C21.1428 25.1203 21.4325 25.016 21.4325 25.016Z" fill="#FBD218"/>
<path d="M24.3543 25.6393H24.5125V25.7373H21.9345C21.9257 25.7062 21.9201 25.674 21.9209 25.6393H24.3543Z" fill="#DB7819"/>
<path d="M23.4331 25.016H24.3306V25.1139H23.4331C22.6937 25.1139 22.3366 25.2371 22.1731 25.3289H22.047C22.047 25.3289 22.2549 25.016 23.4331 25.016Z" fill="#DB7819"/>
<path d="M21.4325 25.0159C21.4325 25.0159 21.3419 25.0485 21.2533 25.1138H20.3495L20.029 24.8475V24.7496L20.3495 25.0159H21.4325Z" fill="#DB7819"/>
<path d="M19.9734 25.4266L20.2064 25.6393H21.0143C21.0143 25.6393 21.0714 26.5782 23.3717 26.5782L23.2458 26.6743C21.0709 26.6405 21.0143 25.7374 21.0143 25.7374H20.2064L19.8662 25.4266V25.3288L19.9734 25.4266Z" fill="#DB7819"/>
<path d="M21.6206 29.0771L24.5268 26.7042L24.5479 26.6869V26.7848L21.6206 29.175H20.2581V29.0771H20.2735H21.6206Z" fill="#DB7819"/>
<path d="M30.9634 26.8135V28.6535C30.9634 29.5603 30.0015 30.3016 28.4442 30.9817V29.4572C30.0015 28.777 30.9634 27.8437 30.9634 26.8135Z" fill="#8D5019"/>
<path d="M25.8695 30.2359V31.7604C24.8557 31.9617 23.7378 32.0821 22.5595 32.1021V30.5775C23.7378 30.5574 24.8557 30.437 25.8695 30.2359Z" fill="#EFB617"/>
<path d="M28.4442 29.4573V30.9818C27.7069 31.3039 26.8356 31.5686 25.8697 31.7603V30.2357C26.8356 30.044 27.7069 29.7793 28.4442 29.4573Z" fill="#D77619"/>
<path d="M21.8545 30.5775V32.1021C20.6762 32.0821 19.5584 31.9617 18.5444 31.7604V30.2359C19.5584 30.437 20.6762 30.5574 21.8545 30.5775Z" fill="#EFB617"/>
<path d="M15.9699 29.4572V30.9817C14.4125 30.3016 13.4506 29.5603 13.4506 28.6535V26.8135C13.4506 27.8437 14.4125 28.777 15.9699 29.4572Z" fill="#8D5019"/>
<path d="M22.2069 30.5813C22.3251 30.5813 22.4422 30.5795 22.5594 30.5776V32.1021C22.4422 32.1041 22.3251 32.106 22.2069 32.106C22.0887 32.106 21.9715 32.1041 21.8544 32.1021V30.5776C21.9715 30.5795 22.0887 30.5813 22.2069 30.5813Z" fill="#D77619"/>
<path d="M18.5445 30.2357V31.7603C17.5785 31.5686 16.7074 31.3039 15.9701 30.9818V29.4573C16.7074 29.7793 17.5785 30.044 18.5445 30.2357Z" fill="#D77619"/>
<path d="M12.2461 24.3339C12.9054 23.0306 15.6635 22.0523 18.967 22.0523C22.3132 22.0523 25.0993 23.056 25.7119 24.3846C25.794 24.5629 25.8385 24.7467 25.8385 24.9351C25.8385 24.9732 25.8351 25.0111 25.8316 25.0488C25.8032 24.7655 25.6621 24.4935 25.4226 24.2394C24.4601 23.219 21.933 22.4904 18.967 22.4904C16.0632 22.4904 13.582 23.1889 12.5758 24.1759C12.2986 24.4478 12.1333 24.7416 12.1023 25.0488C12.0989 25.0111 12.0956 24.9732 12.0956 24.9351C12.0956 24.7288 12.1482 24.5278 12.2461 24.3339Z" fill="#DB7819"/>
<path d="M12.1023 25.0488C12.2451 26.5881 15.263 27.8178 18.967 27.8178C22.671 27.8178 25.6889 26.5881 25.8316 25.0488C25.8351 25.0111 25.8385 24.9731 25.8385 24.9351C25.8385 24.7467 25.794 24.5628 25.7119 24.3846C25.0993 23.0559 22.3132 22.0523 18.967 22.0523C15.6635 22.0523 12.9054 23.0305 12.2461 24.3339C12.1482 24.5278 12.0956 24.7287 12.0956 24.9351C12.0956 24.9731 12.0989 25.0111 12.1023 25.0488ZM18.9305 21.1586C23.7663 21.1586 27.6867 22.8455 27.6867 24.9262C27.6867 27.0071 23.7663 28.6938 18.9305 28.6938C14.0944 28.6938 10.1741 27.0071 10.1741 24.9262C10.1741 22.8455 14.0944 21.1586 18.9305 21.1586Z" fill="#FBD218"/>
<path d="M12.5758 24.176C13.582 23.189 16.0632 22.4905 18.967 22.4905C21.933 22.4905 24.4601 23.219 25.4225 24.2395C25.6621 24.4935 25.8032 24.7656 25.8316 25.0489C25.6889 26.5882 22.671 27.8179 18.967 27.8179C15.263 27.8179 12.2451 26.5882 12.1023 25.0489C12.1332 24.7417 12.2986 24.4479 12.5758 24.176Z" fill="#EFA117"/>
<path d="M18.1558 23.1286H17.0729L16.7524 22.8623H20.5948L21.054 23.1286H20.1564C18.9782 23.1286 18.7704 23.4415 18.7704 23.4415H20.7336L21.2357 23.7521H18.6442C18.6292 24.4296 20.5533 24.4015 20.5533 24.4015H21.1667L21.2711 24.7996L18.344 27.1899H16.9815L17.0026 27.0562L20.0949 24.6909C17.7947 24.6909 17.7375 23.7521 17.7375 23.7521H16.9296L16.5894 23.4415H17.8155C17.8661 23.2329 18.1558 23.1286 18.1558 23.1286Z" fill="#FBD218"/>
<path d="M21.0775 23.7522H21.2358V23.8501H18.6577C18.6489 23.819 18.6435 23.7868 18.6443 23.7522H21.0775Z" fill="#DB7819"/>
<path d="M20.1566 23.1286H21.0541V23.2264H20.1566C19.4171 23.2264 19.0601 23.3496 18.8965 23.4414H18.7706C18.7706 23.4414 18.9784 23.1286 20.1566 23.1286Z" fill="#DB7819"/>
<path d="M18.1558 23.1285C18.1558 23.1285 18.0652 23.161 17.9765 23.2263H17.0728L16.7524 22.9601V22.8622L17.0728 23.1285H18.1558Z" fill="#DB7819"/>
<path d="M16.6968 23.5394L16.9297 23.7521H17.7376C17.7376 23.7521 17.7948 24.6909 20.095 24.6909L19.9691 24.7871C17.7942 24.7532 17.7376 23.8501 17.7376 23.8501H16.9297L16.5895 23.5394V23.4415L16.6968 23.5394Z" fill="#DB7819"/>
<path d="M18.344 27.19L21.25 24.817L21.2711 24.7997V24.8976L18.344 27.2878H16.9815V27.19H16.9968H18.344Z" fill="#DB7819"/>
<path d="M27.6867 24.9263V26.7663C27.6867 27.6731 26.7248 28.4144 25.1675 29.0945V27.57C26.7248 26.8899 27.6867 25.9565 27.6867 24.9263Z" fill="#8D5019"/>
<path d="M22.5929 28.3484V29.8729C21.5791 30.0743 20.4613 30.1946 19.2828 30.2146V28.6901C20.4613 28.67 21.5791 28.5497 22.5929 28.3484Z" fill="#EFB617"/>
<path d="M25.1674 27.5701V29.0946C24.4302 29.4167 23.559 29.6814 22.5929 29.873V28.3485C23.559 28.1568 24.4302 27.8921 25.1674 27.5701Z" fill="#D77619"/>
<path d="M18.5779 28.6901V30.2146C17.3995 30.1946 16.2817 30.0743 15.2678 29.8729V28.3484C16.2817 28.5497 17.3995 28.67 18.5779 28.6901Z" fill="#EFB617"/>
<path d="M12.6935 27.57V29.0945C11.1361 28.4144 10.1742 27.6731 10.1742 26.7663V24.9263C10.1742 25.9565 11.1361 26.8899 12.6935 27.57Z" fill="#8D5019"/>
<path d="M18.9306 28.6938C19.0487 28.6938 19.1659 28.6919 19.283 28.69V30.2145C19.1659 30.2166 19.0487 30.2185 18.9306 30.2185C18.8123 30.2185 18.6951 30.2166 18.5781 30.2145V28.69C18.6951 28.6919 18.8123 28.6938 18.9306 28.6938Z" fill="#D77619"/>
<path d="M15.2678 28.3485V29.873C14.3018 29.6814 13.4306 29.4167 12.6933 29.0946V27.5701C13.4306 27.8921 14.3018 28.1568 15.2678 28.3485Z" fill="#D77619"/>
<path d="M10.5369 22.4526C11.1961 21.1491 13.9541 20.1709 17.2576 20.1709C20.6038 20.1709 23.3899 21.1746 24.0025 22.5033C24.0846 22.6815 24.1291 22.8654 24.1291 23.0537C24.1291 23.0918 24.1257 23.1296 24.1222 23.1675C24.0938 22.8842 23.9527 22.612 23.7132 22.3581C22.7507 21.3375 20.2237 20.6091 17.2576 20.6091C14.3538 20.6091 11.8726 21.3076 10.8665 22.2945C10.5892 22.5666 10.4239 22.8602 10.3931 23.1675C10.3896 23.1296 10.3862 23.0918 10.3862 23.0537C10.3862 22.8474 10.4388 22.6465 10.5369 22.4526Z" fill="#DB7819"/>
<path d="M10.3928 23.1676C10.5355 24.7068 13.5534 25.9364 17.2574 25.9364C20.9614 25.9364 23.9793 24.7068 24.122 23.1676C24.1255 23.1298 24.1289 23.0919 24.1289 23.0538C24.1289 22.8655 24.0844 22.6816 24.0023 22.5034C23.3897 21.1747 20.6036 20.171 17.2574 20.171C13.9539 20.171 11.1958 21.1492 10.5366 22.4527C10.4386 22.6466 10.386 22.8475 10.386 23.0538C10.386 23.0919 10.3893 23.1298 10.3928 23.1676ZM17.2209 19.2774C22.0567 19.2774 25.9771 20.9642 25.9771 23.045C25.9771 25.1258 22.0567 26.8127 17.2209 26.8127C12.3849 26.8127 8.46449 25.1258 8.46449 23.045C8.46449 20.9642 12.3849 19.2774 17.2209 19.2774Z" fill="#FBD218"/>
<path d="M10.8663 22.2945C11.8725 21.3075 14.3537 20.609 17.2575 20.609C20.2235 20.609 22.7506 21.3374 23.713 22.358C23.9526 22.6119 24.0937 22.8841 24.1221 23.1674C23.9794 24.7066 20.9615 25.9363 17.2575 25.9363C13.5535 25.9363 10.5356 24.7066 10.3929 23.1674C10.4237 22.8601 10.5891 22.5665 10.8663 22.2945Z" fill="#EFA117"/>
<path d="M16.4464 21.2472H15.3635L15.043 20.9811H18.8854L19.3446 21.2472H18.447C17.2688 21.2472 17.061 21.5601 17.061 21.5601H19.0242L19.5263 21.8708H16.9348C16.9198 22.5484 18.8439 22.5202 18.8439 22.5202H19.4573L19.5617 22.9183L16.6346 25.3086H15.272L15.2932 25.1748L18.3855 22.8095C16.0853 22.8095 16.0281 21.8708 16.0281 21.8708H15.2202L14.88 21.5601H16.1061C16.1566 21.3515 16.4464 21.2472 16.4464 21.2472Z" fill="#FBD218"/>
<path d="M19.3682 21.8707H19.5264V21.9685H16.9484C16.9396 21.9375 16.9341 21.9052 16.9349 21.8707H19.3682Z" fill="#DB7819"/>
<path d="M18.4469 21.2471H19.3445V21.3451H18.4469C17.7075 21.3451 17.3505 21.4683 17.1869 21.5601H17.0609C17.0609 21.5601 17.2687 21.2471 18.4469 21.2471Z" fill="#DB7819"/>
<path d="M16.4464 21.2473C16.4464 21.2473 16.3559 21.2799 16.2672 21.3452H15.3635L15.043 21.079V20.9811L15.3635 21.2473H16.4464Z" fill="#DB7819"/>
<path d="M14.9874 21.658L15.2204 21.8708H16.0282C16.0282 21.8708 16.0854 22.8096 18.3856 22.8096L18.2597 22.9058C16.0849 22.8718 16.0282 21.9686 16.0282 21.9686H15.2204L14.8802 21.658V21.5601L14.9874 21.658Z" fill="#DB7819"/>
<path d="M16.6346 25.3087L19.5406 22.9356L19.5617 22.9183V23.0163L16.6346 25.4065H15.272V25.3087H15.2875H16.6346Z" fill="#DB7819"/>
<path d="M25.9771 23.0449V24.885C25.9771 25.7916 25.0152 26.533 23.4579 27.2131V25.6885C25.0152 25.0084 25.9771 24.0751 25.9771 23.0449Z" fill="#8D5019"/>
<path d="M20.8834 26.467V27.9916C19.8696 28.1928 18.7518 28.3133 17.5733 28.3333V26.8087C18.7518 26.7886 19.8696 26.6683 20.8834 26.467Z" fill="#EFB617"/>
<path d="M23.4578 25.6886V27.2132C22.7205 27.5352 21.8494 27.8001 20.8833 27.9917V26.4671C21.8494 26.2754 22.7205 26.0107 23.4578 25.6886Z" fill="#D77619"/>
<path d="M16.8686 26.8087V28.3333C15.6902 28.3133 14.5724 28.1928 13.5584 27.9916V26.467C14.5724 26.6683 15.6902 26.7886 16.8686 26.8087Z" fill="#EFB617"/>
<path d="M10.9838 25.6885V27.2131C9.42649 26.533 8.46457 25.7916 8.46457 24.885V23.0449C8.46457 24.0751 9.42649 25.0084 10.9838 25.6885Z" fill="#8D5019"/>
<path d="M17.221 26.8126C17.3391 26.8126 17.4563 26.8107 17.5734 26.8088V28.3333C17.4563 28.3353 17.3391 28.3372 17.221 28.3372C17.1027 28.3372 16.9855 28.3353 16.8685 28.3333V26.8088C16.9855 26.8107 17.1027 26.8126 17.221 26.8126Z" fill="#D77619"/>
<path d="M13.5582 26.4671V27.9917C12.5922 27.8001 11.721 27.5352 10.9837 27.2132V25.6886C11.721 26.0107 12.5922 26.2754 13.5582 26.4671Z" fill="#D77619"/>
<path d="M12.723 20.3237C13.3822 19.0201 16.1402 18.042 19.4438 18.042C22.7899 18.042 25.5761 19.0455 26.1887 20.3742C26.2708 20.5525 26.3153 20.7364 26.3153 20.9246C26.3153 20.9629 26.3119 21.0006 26.3084 21.0386C26.28 20.7552 26.1389 20.483 25.8994 20.2292C24.9369 19.2085 22.4098 18.4801 19.4438 18.4801C16.54 18.4801 14.0588 19.1787 13.0526 20.1655C12.7754 20.4375 12.6101 20.7313 12.5792 21.0386C12.5756 21.0006 12.5724 20.9629 12.5724 20.9246C12.5724 20.7185 12.625 20.5176 12.723 20.3237Z" fill="#DB7819"/>
<path d="M12.5792 21.0383C12.7219 22.5774 15.7398 23.8071 19.4438 23.8071C23.1478 23.8071 26.1657 22.5774 26.3084 21.0383C26.3119 21.0004 26.3153 20.9626 26.3153 20.9244C26.3153 20.7361 26.2708 20.5522 26.1887 20.374C25.5761 19.0452 22.7899 18.0417 19.4438 18.0417C16.1402 18.0417 13.3822 19.0198 12.723 20.3234C12.625 20.5173 12.5724 20.7182 12.5724 20.9244C12.5724 20.9626 12.5756 21.0004 12.5792 21.0383ZM19.4071 17.148C24.2433 17.148 28.1635 18.8348 28.1635 20.9156C28.1635 22.9965 24.2433 24.6833 19.4071 24.6833C14.5713 24.6833 10.6509 22.9965 10.6509 20.9156C10.6509 18.8348 14.5713 17.148 19.4071 17.148Z" fill="#FBD218"/>
<path d="M13.0528 20.1656C14.059 19.1787 16.5402 18.4801 19.444 18.4801C22.41 18.4801 24.9371 19.2085 25.8995 20.2292C26.1391 20.483 26.2801 20.7552 26.3086 21.0386C26.1659 22.5777 23.148 23.8074 19.444 23.8074C15.74 23.8074 12.7221 22.5777 12.5794 21.0386C12.6102 20.7313 12.7756 20.4375 13.0528 20.1656Z" fill="#EFA117"/>
<path d="M18.6328 19.1179H17.5499L17.2293 18.8517H21.0717L21.531 19.1179H20.6335C19.4552 19.1179 19.2474 19.4309 19.2474 19.4309H21.2105L21.7127 19.7415H19.1211C19.1061 20.419 21.0301 20.391 21.0301 20.391H21.6436L21.7481 20.789L18.8208 23.1792H17.4584L17.4796 23.0456L20.5719 20.6801C18.2717 20.6801 18.2145 19.7415 18.2145 19.7415H17.4066L17.0663 19.4309H18.2925C18.3432 19.2223 18.6328 19.1179 18.6328 19.1179Z" fill="#FBD218"/>
<path d="M21.5543 19.7415H21.7126V19.8394H19.1345C19.1257 19.8084 19.1203 19.7761 19.121 19.7415H21.5543Z" fill="#DB7819"/>
<path d="M20.6335 19.1179H21.5309V19.2158H20.6335C19.8939 19.2158 19.5369 19.339 19.3733 19.4309H19.2474C19.2474 19.4309 19.4552 19.1179 20.6335 19.1179Z" fill="#DB7819"/>
<path d="M18.6328 19.1179C18.6328 19.1179 18.5423 19.1506 18.4536 19.2158H17.5499L17.2293 18.9496V18.8517L17.5499 19.1179H18.6328Z" fill="#DB7819"/>
<path d="M17.1735 19.5289L17.4065 19.7416H18.2144C18.2144 19.7416 18.2716 20.6803 20.5717 20.6803L20.4459 20.7766C18.271 20.7426 18.2144 19.8395 18.2144 19.8395H17.4065L17.0662 19.5289V19.4311L17.1735 19.5289Z" fill="#DB7819"/>
<path d="M18.8208 23.1794L21.727 20.8065L21.7481 20.7892V20.887L18.8208 23.2773H17.4584V23.1794H17.4738H18.8208Z" fill="#DB7819"/>
<path d="M28.1635 20.9159V22.7559C28.1635 23.6627 27.2016 24.404 25.6443 25.0842V23.5596C27.2016 22.8794 28.1635 21.9461 28.1635 20.9159Z" fill="#8D5019"/>
<path d="M23.0699 24.3378V25.8624C22.0559 26.0636 20.9381 26.1839 19.7597 26.2041V24.6795C20.9381 24.6594 22.0559 24.5391 23.0699 24.3378Z" fill="#EFB617"/>
<path d="M25.6443 23.5595V25.0841C24.907 25.4061 24.0358 25.6707 23.0698 25.8625V24.3379C24.0358 24.1462 24.907 23.8815 25.6443 23.5595Z" fill="#D77619"/>
<path d="M19.0547 24.6795V26.2041C17.8763 26.1839 16.7585 26.0636 15.7447 25.8624V24.3378C16.7585 24.5391 17.8763 24.6594 19.0547 24.6795Z" fill="#EFB617"/>
<path d="M13.1702 23.5594V25.084C11.6129 24.4038 10.651 23.6625 10.651 22.7557V20.9157C10.651 21.9459 11.6129 22.8791 13.1702 23.5594Z" fill="#8D5019"/>
<path d="M19.4072 24.6835C19.5255 24.6835 19.6427 24.6817 19.7597 24.6796V26.2042C19.6427 26.2062 19.5255 26.208 19.4072 26.208C19.289 26.208 19.1719 26.2062 19.0548 26.2042V24.6796C19.1719 24.6817 19.289 24.6835 19.4072 24.6835Z" fill="#D77619"/>
<path d="M15.7449 24.3379V25.8625C14.7788 25.6707 13.9076 25.4061 13.1703 25.0841V23.5595C13.9076 23.8815 14.7788 24.1462 15.7449 24.3379Z" fill="#D77619"/>
<path d="M12.5792 21.0386C12.61 20.7313 12.7754 20.4375 13.0526 20.1655C13.5087 19.7181 14.268 19.33 15.2323 19.0393C14.8205 19.0921 14.4179 19.1294 14.0265 19.1515C13.3966 19.4898 12.943 19.8886 12.723 20.3237C12.6249 20.5176 12.5723 20.7185 12.5723 20.9246C12.5723 20.9629 12.5756 21.0006 12.5792 21.0386ZM24.1658 19.2087C24.2111 19.0961 24.246 18.9841 24.2698 18.8732V18.8731C23.0293 18.3592 21.3252 18.042 19.4438 18.042C19.4189 18.042 19.394 18.0421 19.3693 18.0422C18.8419 18.2309 18.2895 18.4023 17.7168 18.5527C17.6909 18.5595 17.6649 18.5662 17.639 18.5729C18.214 18.5124 18.8192 18.4801 19.4438 18.4801C21.2726 18.4801 22.9346 18.7571 24.1658 19.2087Z" fill="#9B571A"/>
<path d="M13.9366 23.7141C14.6896 23.7141 15.5059 23.6447 16.3569 23.5005C14.1888 23.0422 12.6791 22.1162 12.5792 21.0384C12.5756 21.0005 12.5723 20.9628 12.5723 20.9245C12.5723 20.7184 12.6249 20.5174 12.723 20.3235C12.943 19.8884 13.3966 19.4897 14.0265 19.1514C13.7354 19.1679 13.4501 19.1761 13.1728 19.1761C12.6677 19.1761 12.1874 19.149 11.7383 19.0958C11.0452 19.6353 10.6509 20.2557 10.6509 20.9157C10.6509 20.9168 10.6509 20.9178 10.6509 20.9189C10.6509 20.9192 10.6509 20.9195 10.6509 20.9199C10.6509 20.9206 10.6509 20.9213 10.6509 20.922C10.6509 20.9223 10.6509 20.9227 10.6509 20.923C10.6509 20.9231 10.6509 20.9232 10.6509 20.9233C10.6509 20.9238 10.6509 20.9245 10.6509 20.9251C10.6509 20.9256 10.6509 20.926 10.6509 20.9264C10.6509 20.9271 10.6509 20.9276 10.6509 20.9283C10.6509 20.9287 10.6509 20.9293 10.6509 20.9298C10.6509 20.9303 10.6509 20.9309 10.6509 20.9314C10.6509 20.9318 10.6509 20.9324 10.6509 20.9329C10.6509 20.9335 10.651 20.9339 10.651 20.9344C10.651 20.9351 10.651 20.9355 10.651 20.9361C10.651 20.9366 10.651 20.937 10.651 20.9376C10.651 20.9381 10.651 20.9387 10.651 20.9392C10.651 20.9396 10.651 20.9402 10.651 20.9407C10.651 20.9413 10.651 20.9418 10.6511 20.9424C10.6511 20.9428 10.6511 20.9433 10.6511 20.9437C10.6511 20.9443 10.6511 20.9449 10.6511 20.9455C10.6511 20.9459 10.6511 20.9463 10.6511 20.9468C10.6511 20.9474 10.6511 20.9481 10.6512 20.9487C10.6512 20.949 10.6512 20.9495 10.6512 20.9498C10.6512 20.9504 10.6512 20.9511 10.6512 20.9517C10.6512 20.9521 10.6512 20.9523 10.6512 20.9526C10.6738 21.9682 11.6313 22.8873 13.1701 23.5594C13.2861 23.6101 13.4053 23.6593 13.5279 23.7071C13.6619 23.7117 13.7981 23.7141 13.9366 23.7141ZM24.2699 18.8729C24.3251 18.6157 24.3234 18.3639 24.2543 18.1225C24.2143 17.9829 24.1516 17.8518 24.072 17.7278C23.2255 17.498 22.2818 17.3286 21.273 17.2341C20.6868 17.5269 20.0489 17.7988 19.3693 18.042C19.394 18.0419 19.419 18.0418 19.4438 18.0418C21.3252 18.0418 23.0294 18.3591 24.2699 18.8729ZM13.8805 18.1981C14.9685 18.1981 16.2078 18.0384 17.4894 17.7037C16.208 18.0384 14.9684 18.198 13.8805 18.1981Z" fill="#B09917"/>
<path d="M16.3571 23.5005C16.3579 23.5004 16.3587 23.5002 16.3595 23.5001C16.7205 23.4389 17.0876 23.3645 17.4586 23.2763V23.1792H17.4739H17.8471H17.4586L17.4797 23.0456L20.4461 20.7765C18.2713 20.7424 18.2146 19.8393 18.2146 19.8393H17.4068L17.0665 19.5288V19.431H18.2926C18.315 19.339 18.3837 19.2673 18.4536 19.2159H17.55L17.2294 18.9496V18.8517H21.0718L21.5311 19.1179H20.6336H21.3622H21.5311V19.2159H21.1023H20.6336C19.8941 19.2159 19.5371 19.3391 19.3735 19.431H21.2106L21.7128 19.7415H19.1212C19.1075 20.3673 20.7472 20.3911 20.9982 20.3911C21.019 20.3911 21.0303 20.391 21.0303 20.391H21.6437L21.7483 20.789L19.4279 22.6838L21.7272 20.8063L21.7483 20.789V20.8868L19.6505 22.5999C21.9785 21.7028 23.679 20.4176 24.166 19.2085C22.9349 18.7569 21.2728 18.4799 19.444 18.4799C18.8195 18.4799 18.2143 18.5122 17.6393 18.5727C16.8177 18.785 16.0093 18.9396 15.2326 19.0391C14.2683 19.3298 13.509 19.718 13.0529 20.1653C12.7756 20.4373 12.6103 20.7311 12.5795 21.0384C12.6794 22.1162 14.1891 23.0422 16.3571 23.5005ZM21.7128 19.7415V19.8393H21.4957H19.1348C19.126 19.8084 19.1205 19.7761 19.1212 19.7415H21.5546H21.7128Z" fill="#A87519"/>
<path d="M17.4584 23.1792H17.847C17.8508 23.1782 17.8548 23.1773 17.8586 23.1762C18.405 23.0327 18.9298 22.8671 19.4278 22.6837L21.7481 20.789L21.6436 20.391H21.0301C21.0301 20.391 21.0189 20.3911 20.9981 20.3911C20.7471 20.3911 19.1073 20.3672 19.1211 19.7415H21.7127L21.2105 19.4309H19.3734H19.2474C19.2474 19.4309 19.4552 19.1179 20.6335 19.1179H21.531L21.0717 18.8517H17.2293L17.5499 19.1179H18.6328C18.6312 19.1185 18.5415 19.1512 18.4536 19.2158H18.4534C18.3836 19.2673 18.3148 19.3389 18.2925 19.4309H17.0663L17.1737 19.5287L17.4066 19.7415H18.2145C18.2145 19.7415 18.2717 20.6801 20.5719 20.6801L20.446 20.7764L17.4796 23.0456L17.4584 23.1792Z" fill="#B09917"/>
<path d="M19.1345 19.8394H21.7126V19.7415H19.121C19.1203 19.7761 19.1257 19.8084 19.1345 19.8394Z" fill="#9B571A"/>
<path d="M19.2474 19.4309H19.3733C19.5369 19.339 19.8939 19.2158 20.6335 19.2158H21.1021H21.5309V19.1179H21.3621H20.6335C19.4552 19.1179 19.2474 19.4309 19.2474 19.4309Z" fill="#9B571A"/>
<path d="M17.5499 19.2158H18.4536C18.5415 19.1512 18.6312 19.1185 18.6328 19.1179H17.5499L17.2293 18.8517V18.9496L17.5499 19.2158Z" fill="#9B571A"/>
<path d="M20.4459 20.7766L20.5717 20.6803C18.2716 20.6803 18.2144 19.7416 18.2144 19.7416H17.4065L17.1735 19.5289L17.0662 19.4311V19.5289L17.4065 19.8395H18.2144C18.2144 19.8395 18.271 20.7426 20.4459 20.7766Z" fill="#9B571A"/>
<path d="M17.4584 23.2764C17.5875 23.2457 17.717 23.2134 17.847 23.1793H17.4738H17.4584V23.2764ZM19.4278 22.6838C19.5025 22.6562 19.5769 22.6283 19.6504 22.5999L21.7481 20.8869V20.7891L21.727 20.8064L19.4278 22.6838Z" fill="#9B571A"/>
<path d="M13.1702 23.5601V23.5594C11.6314 22.8873 10.6739 21.9682 10.6513 20.9526C10.674 21.9683 11.6311 22.8879 13.1702 23.5601ZM10.6512 20.9454C10.6512 20.9449 10.6512 20.9443 10.6512 20.9437C10.6512 20.9444 10.6512 20.9449 10.6512 20.9454ZM10.6511 20.936C10.6511 20.9355 10.6511 20.9351 10.6511 20.9344C10.6511 20.935 10.6511 20.9356 10.6511 20.936ZM10.651 20.9329C10.651 20.9324 10.651 20.9318 10.651 20.9314C10.651 20.9319 10.651 20.9324 10.651 20.9329ZM10.651 20.9232C10.651 20.9231 10.651 20.9231 10.651 20.923C10.651 20.9226 10.651 20.9223 10.651 20.922C10.651 20.9224 10.651 20.9229 10.651 20.9232Z" fill="#643914"/>
<path d="M13.5279 23.707C13.4053 23.6593 13.2861 23.6101 13.1701 23.5594V23.56C13.2855 23.6104 13.4041 23.6594 13.5259 23.7069C13.5266 23.707 13.5272 23.707 13.5279 23.707Z" fill="#97551A"/>
<path d="M10.0667 16.0403C10.3426 14.6163 12.7325 12.9746 15.9184 12.1381C19.1455 11.2909 22.1096 11.5532 23.0672 12.6795C23.1956 12.8306 23.2893 12.9968 23.3413 13.1784C23.3519 13.2151 23.3591 13.2525 23.3661 13.2899C23.2604 13.0238 23.0492 12.7971 22.7481 12.6128C21.5381 11.8723 18.8999 11.8096 16.0394 12.5606C13.239 13.2959 11.0389 14.5978 10.3411 15.8044C10.1488 16.1369 10.0705 16.4621 10.1254 16.7661C10.1117 16.7306 10.098 16.695 10.0874 16.6581C10.0305 16.4592 10.0258 16.2521 10.0667 16.0403Z" fill="#DB7819"/>
<path d="M10.1254 16.7661C10.6881 18.2146 13.9381 18.6362 17.5104 17.6983C21.0825 16.7605 23.6535 14.8104 23.3661 13.2899C23.3591 13.2525 23.3518 13.2151 23.3412 13.1784C23.2893 12.9968 23.1956 12.8307 23.0672 12.6795C22.1095 11.5532 19.1455 11.2909 15.9184 12.1381C12.7325 12.9746 10.3426 14.6163 10.0667 16.0403C10.0258 16.2522 10.0305 16.4593 10.0874 16.6582C10.098 16.695 10.1116 16.7306 10.1254 16.7661ZM15.6363 11.2855C20.3002 10.061 24.5467 10.6951 25.1213 12.7019C25.6959 14.7086 22.3808 17.3281 17.7169 18.5527C13.053 19.7771 8.80648 19.143 8.23195 17.1362C7.65741 15.1294 10.9724 12.5099 15.6363 11.2855Z" fill="#FBD218"/>
<path d="M10.3411 15.8043C11.0389 14.5976 13.239 13.2957 16.0394 12.5605C18.8999 11.8094 21.5381 11.8721 22.7481 12.6127C23.0492 12.797 23.2604 13.0236 23.3661 13.2897C23.6535 14.8103 21.0825 16.7603 17.5104 17.6981C13.9381 18.636 10.6881 18.2144 10.1254 16.766C10.0705 16.4619 10.1488 16.1368 10.3411 15.8043Z" fill="#EFA117"/>
<path d="M15.4335 13.3813L14.389 13.6557L14.0065 13.48L17.7121 12.5071L18.2285 12.6475L17.363 12.8748C16.2266 13.1731 16.1125 13.5276 16.1125 13.5276L18.0059 13.0305L18.5759 13.2029L16.0765 13.859C16.2492 14.5163 18.097 14.002 18.097 14.002L18.6887 13.8466L18.8993 14.2041L16.7363 17.2504L15.4223 17.5955L15.4057 17.4612L17.7349 14.397C15.5165 14.9794 15.2022 14.0886 15.2022 14.0886L14.4231 14.2932L14.0092 14.0797L15.1917 13.7693C15.1829 13.5553 15.4335 13.3813 15.4335 13.3813Z" fill="#FBD218"/>
<path d="M18.4233 13.2428L18.5759 13.2028L18.6028 13.2972L18.3935 13.3522L16.1166 13.95C16.0995 13.9223 16.0854 13.8926 16.0765 13.8589L18.4233 13.2428Z" fill="#DB7819"/>
<path d="M17.3628 12.8748L18.0656 12.6903L18.2284 12.6475L18.2553 12.742L17.8419 12.8505L17.3898 12.9692C16.6766 13.1564 16.3663 13.3657 16.234 13.4956L16.1124 13.5276C16.1124 13.5276 16.2265 13.1732 17.3628 12.8748Z" fill="#DB7819"/>
<path d="M15.4334 13.3813C15.4334 13.3813 15.3551 13.4358 15.2876 13.5211L14.416 13.75L14.0335 13.5744L14.0065 13.48L14.389 13.6556L15.4334 13.3813Z" fill="#DB7819"/>
<path d="M14.1394 14.1468L14.4229 14.2931L15.202 14.0885C15.202 14.0885 15.5163 14.9794 17.7346 14.397L17.6399 14.5216C15.533 15.0396 15.2291 14.1828 15.2291 14.1828L14.4499 14.3875L14.036 14.1741L14.009 14.0796L14.1394 14.1468Z" fill="#DB7819"/>
<path d="M16.7362 17.2503L18.8836 14.226L18.8992 14.204L18.9263 14.2983L16.7631 17.3448L15.4492 17.6897L15.4222 17.5953L15.437 17.5914L16.7362 17.2503Z" fill="#DB7819"/>
<path d="M25.1213 12.7019L25.6293 14.4764C25.8798 15.3509 25.1567 16.3093 23.8426 17.3596L23.4217 15.8894C24.7358 14.839 25.4057 13.6954 25.1213 12.7019Z" fill="#8D5019"/>
<path d="M21.1536 17.292L21.5745 18.7623C20.6523 19.2131 19.6076 19.6123 18.4767 19.9299L18.0557 18.4596C19.1865 18.1419 20.2314 17.7428 21.1536 17.292Z" fill="#EFB617"/>
<path d="M23.4217 15.8893L23.8426 17.3595C23.2205 17.8568 22.4534 18.3328 21.5746 18.7622L21.1537 17.2918C22.0324 16.8624 22.7995 16.3865 23.4217 15.8893Z" fill="#D77619"/>
<path d="M17.3759 18.638L17.797 20.1083C16.6549 20.3872 15.5437 20.5543 14.5103 20.6169L14.0894 19.1467C15.1226 19.084 16.234 18.917 17.3759 18.638Z" fill="#EFB617"/>
<path d="M11.3915 19.0478L11.8124 20.5181C10.1227 20.2564 8.99035 19.7851 8.73999 18.9105L8.23194 17.1361C8.51639 18.1297 9.7018 18.7861 11.3915 19.0478Z" fill="#8D5019"/>
<path d="M17.7169 18.5526C17.8309 18.5226 17.9435 18.4911 18.0558 18.4596L18.4768 19.9299C18.3644 19.9616 18.2518 19.9931 18.138 20.0229C18.0238 20.0529 17.9104 20.0807 17.797 20.1084L17.3759 18.6381C17.4895 18.6105 17.6029 18.5825 17.7169 18.5526Z" fill="#D77619"/>
<path d="M14.0895 19.1468L14.5104 20.617C13.5259 20.6767 12.6126 20.642 11.8126 20.5181L11.3916 19.0479C12.1916 19.1717 13.1049 19.2065 14.0895 19.1468Z" fill="#D77619"/>
<path d="M16.1343 1.90137C17.1718 0.847697 20.1093 0.707935 23.2604 1.65806C26.452 2.62039 28.7949 4.37892 28.9625 5.82237C28.985 6.01607 28.9696 6.20425 28.9106 6.38379C28.8986 6.42033 28.8835 6.45535 28.8684 6.49048C28.93 6.21204 28.8808 5.91187 28.732 5.60078C28.134 4.35049 25.9521 2.92888 23.1229 2.07593C20.3533 1.24072 17.7675 1.19348 16.4983 1.84548C16.1485 2.02513 15.8986 2.25774 15.7729 2.54202C15.7814 2.50484 15.79 2.46787 15.802 2.43144C15.8667 2.23472 15.9799 2.05821 16.1343 1.90137Z" fill="#DB7819"/>
<path d="M15.7727 2.54201C15.4261 4.05118 17.9192 6.09193 21.4522 7.15717C24.9851 8.22251 28.2494 7.91759 28.8682 6.49046C28.8834 6.45533 28.8985 6.42031 28.9105 6.38378C28.9695 6.20424 28.9848 6.01605 28.9624 5.82235C28.7948 4.37891 26.4519 2.62037 23.2603 1.65804C20.1092 0.707921 17.1717 0.847682 16.1342 1.90135C15.9798 2.05819 15.8665 2.2347 15.8019 2.43143C15.7899 2.46786 15.7813 2.50483 15.7727 2.54201ZM23.5056 0.795041C28.1184 2.18585 31.3287 4.92228 30.6762 6.90705C30.0235 8.89181 25.7552 9.37325 21.1424 7.98244C16.5297 6.59164 13.3193 3.85521 13.9719 1.87044C14.6245 -0.114328 18.8929 -0.595874 23.5056 0.795041Z" fill="#FF9408"/>
<path d="M16.4982 1.84539C17.7674 1.19339 20.3532 1.24063 23.1228 2.07584C25.952 2.92879 28.1339 4.3504 28.7319 5.60069C28.8807 5.91178 28.9299 6.21195 28.8683 6.49039C28.2494 7.91751 24.9852 8.22244 21.4522 7.1571C17.9192 6.09186 15.4261 4.0511 15.7728 2.54193C15.8985 2.25766 16.1484 2.02504 16.4982 1.84539Z" fill="#FADE55"/>
<path d="M30.6762 6.90693L30.0991 8.66201C29.8147 9.52684 28.6648 9.95726 26.966 10.1582L27.4442 8.70405C29.1429 8.50311 30.353 7.88959 30.6762 6.90693Z" fill="#8D5019"/>
<path d="M24.7443 8.70614L24.2662 10.1604C23.2361 10.0607 22.132 9.85407 21.0017 9.53434L21.4798 8.08008C22.6102 8.39981 23.7142 8.60648 24.7443 8.70614Z" fill="#EFB617"/>
<path d="M27.4442 8.70397L26.966 10.1581C26.1618 10.2532 25.2477 10.2552 24.2662 10.1603L24.7443 8.70603C25.7259 8.80093 26.6398 8.79898 27.4442 8.70397Z" fill="#D77619"/>
<path d="M20.8074 7.87739L20.3293 9.33154C19.2116 8.97344 18.1832 8.53718 17.2792 8.05358L17.7573 6.59944C18.6612 7.08293 19.6897 7.51929 20.8074 7.87739Z" fill="#EFB617"/>
<path d="M15.5458 5.11665L15.0676 6.5708C13.7955 5.47422 13.1105 4.49048 13.3948 3.62554L13.972 1.87046C13.6488 2.85312 14.2737 4.01996 15.5458 5.11665Z" fill="#8D5019"/>
<path d="M21.1424 7.98245C21.2552 8.0165 21.3675 8.04839 21.4798 8.08017L21.0017 9.53442C20.8894 9.50265 20.7771 9.47065 20.6643 9.43671C20.5515 9.40266 20.4404 9.36721 20.3293 9.33165L20.8074 7.8775C20.9185 7.91306 21.0297 7.94851 21.1424 7.98245Z" fill="#D77619"/>
<path d="M17.7574 6.59956L17.2793 8.05371C16.418 7.59314 15.67 7.08997 15.0677 6.57081L15.5459 5.11666C16.1482 5.63582 16.8962 6.13888 17.7574 6.59956Z" fill="#D77619"/>
<path d="M16.8349 12.3711C17.9221 12.1388 18.9594 12.0265 19.8763 12.0264C18.9593 12.0265 17.9222 12.1387 16.8349 12.3711ZM16.25 12.0545C17.4205 11.773 18.5481 11.6382 19.5479 11.6381C18.548 11.6381 17.4206 11.773 16.25 12.0545Z" fill="#49ABAC"/>
<path d="M23.3661 13.2898C23.3591 13.2524 23.3519 13.215 23.3413 13.1782C23.2893 12.9967 23.1956 12.8305 23.0672 12.6794C23.0656 12.6776 23.064 12.6757 23.0625 12.6739C23.0599 12.6709 23.0573 12.6678 23.0547 12.6649C22.4735 11.9979 21.1814 11.6383 19.5488 11.6382C19.5487 11.6382 19.5486 11.6382 19.5483 11.6382C19.5482 11.6382 19.5481 11.6382 19.5479 11.6382C18.5481 11.6383 17.4205 11.7731 16.25 12.0545C16.2501 12.0546 16.2502 12.0547 16.2504 12.0547C16.4369 12.1628 16.632 12.2684 16.8349 12.3711C17.9223 12.1387 18.9593 12.0265 19.8763 12.0264C19.8767 12.0264 19.8767 12.0264 19.877 12.0264C19.8771 12.0264 19.8772 12.0264 19.8774 12.0264C21.1018 12.0265 22.1117 12.2266 22.7405 12.6081C22.7408 12.6082 22.7411 12.6084 22.7413 12.6086C22.7436 12.6099 22.7458 12.6113 22.7481 12.6127C23.0492 12.797 23.2604 13.0237 23.3661 13.2898Z" fill="#9B571A"/>
<path d="M23.3408 13.9636C23.983 13.9636 24.57 13.906 25.0791 13.7942C25.2006 13.4204 25.2212 13.054 25.1227 12.7063C25.1226 12.7061 25.1226 12.7059 25.1225 12.7057C25.1222 12.7044 25.1218 12.7031 25.1214 12.7019C24.7451 11.3873 22.7935 10.6618 20.1804 10.6618C18.8047 10.6618 17.2451 10.8631 15.6364 11.2855C15.5068 11.3195 15.3785 11.355 15.2511 11.3912C15.547 11.6192 15.8823 11.8416 16.2501 12.0546C17.4207 11.7732 18.5481 11.6383 19.548 11.6383C19.5482 11.6383 19.5483 11.6383 19.5484 11.6383C19.5487 11.6383 19.5488 11.6383 19.5489 11.6383C21.1815 11.6384 22.4736 11.998 23.0548 12.665C23.0574 12.6679 23.06 12.671 23.0626 12.674C23.0641 12.6758 23.0657 12.6777 23.0673 12.6795C23.1957 12.8306 23.2894 12.9967 23.3414 13.1783C23.352 13.2151 23.3592 13.2525 23.3662 13.2899C23.381 13.3678 23.3882 13.4469 23.3881 13.5269C23.388 13.6698 23.3647 13.8159 23.3198 13.9636C23.3268 13.9636 23.3338 13.9636 23.3408 13.9636Z" fill="#B09917"/>
<path d="M23.3197 13.9636C23.3646 13.8159 23.3879 13.6698 23.388 13.5269C23.3881 13.4469 23.3809 13.3678 23.3661 13.2899C23.2604 13.0238 23.0492 12.7971 22.7481 12.6128C22.7458 12.6114 22.7436 12.61 22.7413 12.6087C22.7411 12.6085 22.7407 12.6083 22.7405 12.6082C22.1117 12.2267 21.1018 12.0266 19.8773 12.0265C19.8772 12.0265 19.8771 12.0265 19.877 12.0265C19.8767 12.0265 19.8767 12.0265 19.8763 12.0265C18.9594 12.0266 17.9221 12.1389 16.8349 12.3712C16.9946 12.452 17.1592 12.5309 17.3284 12.6077L17.712 12.5071L18.2284 12.6475L17.7239 12.78L18.0656 12.6903L18.2284 12.6475L18.2553 12.742L17.8746 12.842C18.4087 13.0578 18.9807 13.2523 19.5817 13.4182C20.9106 13.7848 22.197 13.9612 23.3179 13.9636C23.3184 13.9636 23.3191 13.9636 23.3197 13.9636Z" fill="#A87519"/>
<path d="M17.7238 12.78L18.2283 12.6475L17.7119 12.5071L17.3283 12.6077C17.4576 12.6664 17.5895 12.7239 17.7238 12.78Z" fill="#B09917"/>
<path d="M17.8746 12.8418L18.2553 12.7418L18.2284 12.6473L18.0656 12.6901L17.7239 12.7799C17.7739 12.8007 17.824 12.8213 17.8746 12.8418Z" fill="#9B571A"/>
<path d="M25.1225 12.7063C25.1224 12.7059 25.1222 12.7056 25.1222 12.7052C25.1224 12.7056 25.1224 12.7059 25.1225 12.7063Z" fill="#643914"/>
</g>
<defs>
<filter id="filter0_i_1659_12065" x="9.53925" y="32.2861" width="22.5375" height="7.73511" filterUnits="userSpaceOnUse" color-interpolation-filters="sRGB">
<feFlood flood-opacity="0" result="BackgroundImageFix"/>
<feBlend mode="normal" in="SourceGraphic" in2="BackgroundImageFix" result="shape"/>
<feColorMatrix in="SourceAlpha" type="matrix" values="0 0 0 0 0 0 0 0 0 0 0 0 0 0 0 0 0 0 127 0" result="hardAlpha"/>
<feOffset dy="-2.28571"/>
<feComposite in2="hardAlpha" operator="arithmetic" k2="-1" k3="1"/>
<feColorMatrix type="matrix" values="0 0 0 0 0.0745098 0 0 0 0 0.0745098 0 0 0 0 0.0745098 0 0 0 0.4 0"/>
<feBlend mode="normal" in2="shape" result="effect1_innerShadow_1659_12065"/>
</filter>
<clipPath id="clip0_1659_12065">
<rect width="40" height="40" fill="white" transform="matrix(-1 0 0 1 40 0)"/>
</clipPath>
</defs>
</svg>
